<?xml version="1.0" encoding="utf-8"?>
<!-- Generator: Adobe Illustrator 19.0.0, SVG Export Plug-In . SVG Version: 6.00 Build 0)  -->
<svg version="1.1" id="Clock" xmlns="http://www.w3.org/2000/svg" xmlns:xlink="http://www.w3.org/1999/xlink" x="0px" y="0px"
	 viewBox="-295 387 20 20" style="enable-background:new -295 387 20 20;" xml:space="preserve">
<style type="text/css">
	.st0{fill:#FFA303;}
</style>
<path class="st0" d="M-285,387.4c-5.3,0-9.6,4.3-9.6,9.6c0,5.3,4.3,9.6,9.6,9.6c5.3,0,9.6-4.3,9.6-9.6
	C-275.4,391.7-279.7,387.4-285,387.4z M-285,404.6c-4.2,0-7.6-3.4-7.6-7.6c0-4.2,3.4-7.6,7.6-7.6c4.2,0,7.6,3.4,7.6,7.6
	C-277.4,401.2-280.8,404.6-285,404.6z M-284,396.3V391h-2v6.2l-3.5,2l1,1.7l4.1-2.4c0.2-0.1,0.4-0.5,0.4-0.7v-0.2l4.2-4.2
	c-0.2-0.3-0.4-0.5-0.6-0.8L-284,396.3z"/>
</svg>
